PathFileType	4	(X/Y/Z)	C:/Users/beibeiliu/ov580/test_trc/User3\sequence.40_training_dense_right.trc
DataRate	CameraRate	NumFrames	NumMarkers	Units	OrigDataRate	OrigDataStartFrame	OrigNumFrames
120	120	24	19	mm	120	86	114
Frame#	Time	ThumbCMC			ThumbMCP			ThumbIP			ThumbTip			IndexMCP			IndexPIP			IndexTip			MiddleMCP			MiddlePIP			MiddleTip			RingMCP			RingPIP			RingTip			PinkyMCP			PinkyPIP			PinkyTip			BackHand1			BackHand2			BackHand3	
		X0	Y0	Z0	X1	Y1	Z1	X2	Y2	Z2	X3	Y3	Z3	X4	Y4	Z4	X5	Y5	Z5	X6	Y6	Z6	X7	Y7	Z7	X8	Y8	Z8	X9	Y9	Z9	X10	Y10	Z10	X11	Y11	Z11	X12	Y12	Z12	X13	Y13	Z13	X14	Y14	Z14	X15	Y15	Z15	X16	Y16	Z16	X17	Y17	Z17	X18	Y18	Z18	
85	0.708333	167.409	21.3119	0.059016	174.945	28.3198	-28.7203	188.747	28.0339	-55.2141	195.861	27.8437	-77.1613	214.928	10.3709	-54.6061	192.971	3.81569	-79.5577	166.658	3.78022	-56.1446	210.325	-9.37348	-59.2136	183.259	-17.4286	-70.5788	166.852	-11.9975	-30.7588	208.613	-31.847	-51.1297	182.877	-33.2064	-63.55	162.519	-28.266	-34.6043	219.115	-41.8824	-34.0659	225.696	-45.0184	-52.3883	231.102	-42.6444	-77.4364	209.411	-21.0352	9.71067	189.716	-24.8647	34.5677	195.305	5.7397	17.9078	
86	0.716667	144.91	24.576	-6.63116	144	33.2948	-35.049	155.341	41.7048	-64.9914	160.266	41.2219	-85.1402	188.303	33.5144	-68.37	170.896	17.017	-86.4718	152.128	4.13454	-56.7964	195.92	13.014	-67.385	170.356	-7.53325	-76.3204	160.382	-5.17268	-36.2284	202.603	-5.71994	-62.9012	177.175	-20.3019	-69.5017	161.266	-18.5069	-39.9754	217.794	-8.65751	-44.2293	223.513	-5.20027	-65.235	229.146	-2.66952	-84.884	205.116	5.26258	-3.06777	193.57	-3.89476	25.9218	181.013	26.2719	6.09227	
87	0.725	122.09	11.7997	-11.4099	117.991	21.6719	-43.9598	118.795	28.9141	-74.0829	126.057	30.43	-96.5906	153.784	34.3602	-79.9478	142.355	9.97849	-95.2915	129.908	-2.23632	-65.4566	166.188	19.1883	-81.4417	151.174	-8.06261	-84.542	149.209	-10.3342	-45.5471	181.524	8.71012	-74.4809	169.257	-19.2104	-77.0036	156.244	-21.8064	-47.4221	202.536	13.1286	-57.3955	203.692	17.1592	-78.0261	209.789	21.3881	-101.398	186.624	23.2952	-13.5945	179.863	11.4795	11.0363	153.63	29.099	-3.60951	
88	0.733333	107.771	0.715294	-14.9961	96.3906	2.70046	-47.7397	98.2141	5.3832	-76.3067	105.318	4.77965	-100.421	129.355	19.036	-88.4453	124.069	-12.9034	-97.9848	117.528	-14.8938	-64.3807	148.432	6.9924	-90.2701	140.268	-22.9398	-89.435	135.923	-17.3817	-48.2727	159.624	1.48776	-84.041	154.566	-28.3199	-80.3346	149.364	-26.2111	-46.0186	180.792	14.4288	-67.5516	185.625	16.0107	-91.1068	187.862	20.0606	-114.477	164.372	26.6186	-30.8738	163.525	20.0266	-1.1248	133.37	28.4387	-15.8588	
89	0.741667	97.9684	-4.15399	-20.4818	87.1923	-13.0117	-46.5375	83.2772	-16.7728	-77.744	89.7492	-23.5927	-96.9346	112.467	-2.70382	-92.1352	106.683	-33.0151	-96.668	109.902	-30.7125	-60.2556	133.409	-11.4862	-90.8787	126.081	-43.115	-83.0311	124.281	-25.5273	-46.7042	146.929	-16.3578	-85.9712	146.358	-43.5295	-77.1452	136.284	-36.8818	-45.5626	170.434	0.0152161	-75.1796	170.078	-2.65161	-93.5574	174.867	-2.43077	-114.653	154.142	20.1655	-35.9582	155.418	19.2375	-8.4472	119.144	24.2722	-26.1284	
90	0.75	87.0585	-6.5536	-15.5151	75.6029	-20.2481	-43.86	71.4169	-30.9063	-72.7823	75.0783	-43.977	-91.8749	98.0935	-20.1256	-90.8825	96.8436	-50.3598	-86.5855	94.4301	-41.5903	-54.3971	121.551	-27.9806	-86.4323	112.031	-57.8146	-73.5318	113.377	-37.7133	-40.6483	138.501	-32.7024	-79.1928	130.247	-59.3829	-62.6493	125.875	-41.5166	-35.2311	158.222	-18.368	-72.2513	162.651	-27.0408	-92.336	162.608	-32.1997	-110.561	142.863	11.0568	-42.9277	143.503	17.1151	-8.15178	110.543	20.0459	-29.2703	
91	0.758333	84.1705	-1.83439	-12.4129	66.2467	-17.8159	-37.6084	60.7568	-33.5177	-57.091	59.6257	-49.3012	-77.7851	90.79	-28.8051	-82.6356	78.0919	-57.0593	-71.3273	82.2611	-41.5978	-43.5445	107.89	-40.7409	-78.2055	95.71	-64.9744	-57.3727	101.331	-37.772	-31.1123	122.793	-46.6654	-70.6821	114.927	-68.5327	-47.9199	110.631	-47.0031	-25.9704	150.715	-35.1954	-65.8913	148.128	-48.4169	-85.4622	148.099	-58.1603	-101.09	139.84	2.34452	-42.1166	143.832	12.6114	-9.96038	109.031	17.7226	-26.2614	
92	0.766667	80.6671	7.94549	-11.0319	64.2202	-7.8744	-29.711	48.2597	-21.7295	-50.6116	48.8227	-40.3011	-66.8893	76.9397	-26.402	-75.1092	59.4971	-50.4384	-60.411	70.8826	-34.4058	-34.0825	93.0927	-42.9995	-70.1183	74.3338	-59.7164	-47.5662	90.214	-37.2785	-22.7334	105.739	-51.1643	-60.4172	93.2832	-69.0104	-40.3985	98.9645	-41.2116	-14.584	134.583	-49.744	-61.2494	129.262	-60.9185	-72.0113	123.029	-78.2559	-89.5519	137.615	-6.18193	-37.3131	145.594	5.79169	-6.86109	111.53	16.4788	-24.8168	
93	0.775	85.2167	20.6947	-8.47829	60.3383	12.0991	-25.9481	44.323	-1.24942	-50.7155	32.609	-16.5776	-63.5981	69.8463	-15.9191	-70.2087	43.5503	-30.4992	-56.7525	61.5008	-18.9308	-28.3357	78.563	-33.6404	-63.8526	57.3858	-46.926	-37.7631	78.0402	-22.0268	-16.8415	87.5265	-48.8264	-52.3633	70.0069	-57.0983	-31.8717	77.5942	-34.8491	-9.19997	113.393	-55.232	-51.3359	104.296	-69.6735	-62.8399	89.9883	-84.362	-75.5658	133.681	-16.2625	-34.2532	141.429	0.161019	-2.88649	117.112	17.4943	-27.3037	
94	0.783333	92.8919	32.1908	-4.93098	67.4081	33.0793	-24.7425	46.3969	25.7756	-50.6346	32.5047	9.42696	-64.5986	65.2927	-3.45513	-67.9282	36.2602	-6.17495	-52.4714	52.9473	7.26228	-27.6629	65.2224	-21.3177	-60.2284	41.687	-20.6902	-35.2595	70.516	-5.55115	-13.4693	69.5066	-37.7285	-48.5442	50.4461	-37.2439	-26.5021	67.076	-19.456	-3.13753	90.9984	-47.7397	-43.9948	74.7377	-58.39	-56.7411	55.5619	-70.2744	-70.3493	123.03	-21.0996	-28.9822	135.692	-11.8064	-3.96717	122.489	19.0352	-22.7234	
95	0.791667	102.845	43.3146	-9.39399	81.2339	51.6372	-29.7959	59.1259	48.7262	-56.1016	43.7263	38.6282	-66.3274	67.7541	17.1678	-68.9799	37.4622	24.2704	-55.1013	56.8204	31.6242	-29.9337	59.4451	-4.45978	-57.8326	34.8899	10.5537	-37.8173	64.8884	13.6739	-12.7242	57.8363	-15.8462	-47.1752	36.8498	-5.56648	-27.0877	59.2165	5.23864	-3.67797	69.8127	-34.5399	-42.3576	50.0969	-39.4777	-54.4094	33.2737	-42.6279	-65.9043	112.737	-19.3484	-26.29	126.783	-15.5415	0.122243	122.393	11.7369	-23.8587	
96	0.8	118.011	44.086	-14.1893	99.5132	52.3278	-37.2503	83.6022	59.2962	-59.7387	64.4732	58.1375	-75.8846	75.4732	29.1668	-73.6727	52.8163	50.5307	-65.7949	66.4607	48.5154	-34.3883	56.9708	19.2955	-62.7679	40.9072	37.3177	-42.1183	69.2979	34.9705	-17.1408	51.2397	2.68551	-47.5238	37.1069	25.8834	-29.0421	63.3962	30.4622	-10.3014	54.1715	-20.3482	-39.09	39.3874	-12.1568	-56.813	24.9801	-15.4911	-69.3446	100.237	-16.8453	-21.5762	114.344	-15.686	2.33209	124.725	7.54539	-19.8264	
97	0.808333	129.286	32.7137	-16.6865	118.283	42.4675	-40.9515	109.646	54.0514	-68.2363	89.9121	55.14	-84.8666	86.1563	24.3641	-77.4599	73.3456	54.0238	-73.3326	85.6847	52.3307	-42.8244	67.4009	25.5286	-70.1035	60.616	52.2465	-54.9192	82.1498	37.8122	-23.5002	53.0935	17.2728	-55.8224	45.1256	40.5858	-41.983	67.5675	37.8772	-16.1724	51.3197	-4.95933	-43.3529	34.9362	0.108546	-61.7423	23.3417	2.36692	-79.7615	86.7689	-19.085	-21.1559	101.193	-21.0259	5.00517	121.477	-4.22208	-20.6197	
98	0.816667	136.586	11.4614	-12.3054	132.754	22.9866	-40.1271	125.543	28.4598	-68.7043	113.042	34.316	-92.5412	99.6238	3.93983	-80.4472	92.6614	35.6557	-82.434	105.511	36.4708	-49.5605	78.8586	9.43278	-75.4098	78.6861	41.2778	-63.3236	93.8874	28.9147	-32.133	63.9266	5.10518	-61.7531	61.3306	34.6194	-56.8154	77.8431	33.3467	-28.3196	50.4985	-11.5856	-46.026	47.1441	-5.26036	-71.143	36.8803	-1.3889	-88.9594	85.59	-28.1614	-18.7129	91.9994	-29.5508	11.6971	119.794	-22.7619	-18.3511	
99	0.825	139.907	-12.7457	-8.01449	138.009	-4.13222	-36.4963	139.594	-2.48783	-68.5057	130.718	1.03537	-92.9088	117.292	-27.8451	-77.2616	115.34	1.52764	-87.5721	116.507	6.57292	-52.1768	96.0624	-19.9782	-77.0414	95.4302	11.4228	-73.2506	105.044	4.95524	-35.2863	76.5131	-18.2209	-66.3743	75.7121	11.8166	-63.6239	87.4998	12.3487	-33.42	58.2207	-32.6412	-50.9689	52.8126	-29.7994	-72.3729	51.033	-30.3432	-94.4132	83.8304	-45.8053	-16.1467	86.2525	-43.3563	16.5488	119.601	-43.4777	-7.04465	
100	0.833333	143.767	-30.5061	0.999059	148.584	-25.9114	-29.6675	154.018	-25.6698	-57.6886	143.206	-30.2101	-82.9918	129.722	-60.0252	-67.4047	131.436	-30.251	-82.4948	127.902	-19.818	-52.8943	108.934	-51.6117	-69.1147	108.968	-19.1928	-72.0761	113.754	-18.6726	-34.8606	90.0093	-49.7495	-61.6596	92.4775	-18.1385	-67.5883	101.449	-12.7497	-33.2385	73.0245	-58.5465	-44.9257	72.1895	-61.5916	-66.6274	66.1741	-63.8378	-90.843	94.8125	-66.1455	-6.64405	90.149	-58.6519	22.3685	125.291	-64.351	5.23738	
101	0.841667	156.068	-42.4508	5.35893	157.834	-41.4884	-24.1299	170.681	-44.3413	-52.8358	166.487	-45.8195	-74.7313	153.023	-78.1738	-58.8826	151.523	-52.0264	-75.8225	142.046	-37.511	-45.0023	127.673	-72.1367	-63.5476	128.273	-42.2369	-69.9992	127.317	-35.6831	-28.4677	111.489	-70.6818	-57.2695	109.169	-40.6576	-65.1591	114.715	-28.7448	-33.8556	91.7941	-78.1224	-39.3788	90.9656	-84.887	-63.6899	89.1085	-92.2148	-84.9152	105.858	-79.7833	2.92355	103.564	-68.3191	29.0819	135.588	-75.2012	14.2938	
102	0.85	164.344	-38.4688	12.1274	174.33	-36.9474	-16.9999	186.541	-41.204	-46.5228	182.172	-45.1165	-66.7181	173.076	-77.2271	-49.2618	166.888	-53.024	-70.9093	153.739	-35.8906	-43.6035	149.951	-77.9902	-55.4824	141.449	-46.2123	-65.1525	135.16	-40.501	-24.4619	130.481	-79.0944	-50.2006	125.358	-50.8038	-62.7711	124.322	-34.5363	-32.6809	116.454	-91.4913	-37.7596	117.636	-96.9048	-57.9959	118.798	-104.252	-78.6898	129.141	-88.6864	4.42363	118.769	-74.7559	34.8482	153.161	-73.6076	21.0716	
103	0.858333	170.08	-15.9006	14.2213	177.287	-15.466	-15.4817	187.938	-17.666	-43.1708	191.98	-24.5579	-68.9177	188.904	-53.0408	-50.9963	172.903	-29.6613	-68.1713	156.982	-18.5958	-40.8734	168.961	-63.6712	-53.1032	151.462	-36.3461	-62.3898	144.145	-29.7076	-25.2431	155.584	-70.7386	-50.3687	136.815	-50.8531	-60.5447	128.21	-35.6928	-31.4341	147.629	-90.4075	-35.9179	153.459	-92.248	-53.3999	159.333	-98.0252	-74.5152	155.859	-81.2414	8.28799	144.763	-70.1484	36.6503	176.659	-52.0448	23.5964	
104	0.866667	154.762	2.50757	12.3284	164.011	13.942	-18.9814	173.227	12.7481	-46.4229	176.853	9.25226	-68.0293	191.618	-11.5257	-51.7857	162.833	-4.58959	-70.9707	144.007	-7.20907	-44.1173	180.499	-30.263	-57.3018	148.991	-25.3322	-63.7647	140.483	-23.622	-25.585	171.792	-50.6391	-51.1804	143.169	-39.458	-59.9999	131.195	-35.42	-28.1947	177.31	-68.3844	-34.2663	182.945	-68.7355	-55.9136	192.191	-66.8268	-79.7199	180.308	-54.2053	10.1805	164.134	-52.7148	36.0311	178.873	-23.2141	20.8178	
105	0.875	135.767	13.5192	8.82818	135.84	26.1556	-21.4082	143.625	32.1983	-51.5152	150.207	29.4405	-73.224	170.057	15.3372	-58.6935	143.249	7.30436	-73.7147	127.52	-1.21238	-47.1493	170.402	-6.75485	-60.3566	141.807	-16.4769	-66.85	135.494	-17.688	-26.2813	171.637	-24.0541	-56.8735	142.166	-31.3544	-60.9269	130.525	-31.7512	-32.0133	189.056	-37.9075	-40.0483	192.769	-33.9086	-63.7912	198.172	-32.8674	-83.392	186.388	-23.196	2.13539	173.138	-27.5999	30.9312	168.741	5.78776	13.6962	
106	0.883333	112.771	12.8663	6.14945	108.949	23.0296	-23.2817	114.773	29.881	-54.2403	117.966	28.4165	-74.0954	145.447	20.6637	-63.5111	124.637	4.13476	-78.2985	112.882	-7.9707	-47.1267	152.547	0.458829	-66.3115	127.244	-19.5609	-67.9094	128.291	-18.321	-26.0069	160.334	-12.0598	-61.76	137.382	-30.5394	-65.0887	126.641	-32.6466	-34.7317	182.961	-20.8933	-45.8583	185.781	-17.5493	-71.5274	190.383	-15.4177	-89.1538	179.915	-6.6179	-3.98363	170.013	-16.8967	25.7264	151.618	15.7396	8.02532	
107	0.891667	97.0273	1.54485	3.06932	93.6249	7.99836	-27.495	93.2508	16.5472	-58.1535	93.4369	17.7472	-80.3862	121.84	18.6171	-68.3745	101.136	-5.71123	-80.8612	99.8937	-15.7624	-46.7301	132.732	-0.656056	-72.7661	113.653	-25.6784	-71.0537	118.248	-27.2301	-33.311	145.804	-12.2703	-65.3835	129.41	-40.0547	-65.222	121.172	-38.0271	-35.3774	171.09	-12.7684	-54.4194	172.039	-10.1172	-72.3826	173.472	-4.27509	-95.7497	164.618	-0.512475	-10.4347	158.475	-7.1908	17.2861	132.805	14.718	4.53846	
108	0.9	86.8407	-10.8195	1.0063	75.6358	-4.67047	-31.6095	69.5368	-0.828607	-60.619	75.7491	-2.28065	-83.5412	104.204	7.051	-71.2676	88.2715	-22.7514	-82.0386	87.2071	-27.2658	-48.2779	117.708	-7.02694	-72.0011	105.929	-39.5794	-73.8419	105.825	-33.9918	-34.3662	131.644	-21.4083	-70.8009	120.881	-49.3185	-66.8903	116.242	-46.1974	-32.2953	156.505	-13.7018	-60.4144	156.181	-12.5566	-76.6878	160.862	-8.1746	-100.419	149.96	-2.44363	-14.723	144.851	-5.86768	13.406	117.682	11.1656	0.123046	
